<?xml version="1.0" encoding="UTF-8"?>
<svg version="1.1" xmlns="http://www.w3.org/2000/svg" width="510" height="355">
<path d="M0 0 C0.69057495 0.17534271 1.3811499 0.35068542 2.09265137 0.53134155 C50.70361252 12.91969407 100.6619042 30.19077118 141.6875 59.6875 C143.15123047 60.72583984 143.15123047 60.72583984 144.64453125 61.78515625 C152.89988717 67.79386845 160.47148155 74.47148155 167.6875 81.6875 C167.66242205 84.36143622 167.49150739 86.85228223 167.1875 89.5 C167.0956543 90.32387207 167.00380859 91.14774414 166.90917969 91.99658203 C164.84496073 108.75085479 161.04702325 125.40852743 156.625 141.6875 C156.29387207 142.95859619 156.29387207 142.95859619 155.95605469 144.25537109 C155.73208008 145.03734863 155.50810547 145.81932617 155.27734375 146.625 C155.09034912 147.29402344 154.90335449 147.96304688 154.71069336 148.65234375 C152.0659224 153.91285693 147.68272017 156.48509 142.46484375 158.78125 C141.86025833 159.04951096 141.25567291 159.31777191 140.63276672 159.59416199 C138.63615947 160.47314259 136.63168164 161.3317893 134.625 162.1875 C133.92588501 162.48919098 133.22677002 162.79088196 132.50646973 163.10171509 C78.63759036 186.30213445 21.39961717 201.55176516 -36.01000977 212.990448 C-41.25975374 214.042258 -46.47809815 215.17424697 -51.68681335 216.41294861 C-71.48923375 221.08830854 -86.00891874 220.79818496 -105.38867188 213.1875 C-109.55888147 211.56355207 -113.79180619 210.16446557 -118.046875 208.78125 C-135.01944071 203.23018901 -151.70655984 197.16291635 -167.96264648 189.73413086 C-170.45584579 188.58480792 -170.45584579 188.58480792 -173.7109375 187.5 C-177.91735806 184.56940069 -179.23514412 180.40192302 -181.125 175.75 C-181.5487793 174.73655518 -181.97255859 173.72311035 -182.40917969 172.67895508 C-193.45877933 145.60743595 -201.36882461 116.82531437 -204.3125 87.6875 C-204.44011719 86.62402344 -204.56773437 85.56054688 -204.69921875 84.46484375 C-204.15248383 80.53829299 -202.0352179 78.59390032 -199.25 76 C-198.71125244 75.48308594 -198.17250488 74.96617188 -197.61743164 74.43359375 C-191.3167696 68.53655523 -184.44800136 63.51810364 -177.3125 58.6875 C-176.63429199 58.22408203 -175.95608398 57.76066406 -175.25732422 57.28320312 C-133.25509634 28.87251036 -84.15430321 12.0385594 -35.3125 -0.3125 C-34.18440918 -0.60237793 -33.05631836 -0.89225586 -31.89404297 -1.19091797 C-20.01996685 -4.11379373 -11.7413006 -3.02122852 0 0 Z " fill="#4DE84D" transform="translate(273.3125,3.3125)"/>
<path d="M0 0 C-0.45375 1.155 -0.9075 2.31 -1.375 3.5 C-3.727186 10.44507999 -4.24328222 17.7444119 -5 25 C-6.12277344 25.37511719 -7.24554688 25.75023438 -8.40234375 26.13671875 C-26.32639967 32.12524001 -26.32639967 32.12524001 -39.9375 44.75 C-42.26704431 51.87566495 -41.60815435 58.1898154 -38.25390625 64.8515625 C-7.37249951 117.76363013 84.92487304 139.1565644 139.85113525 153.64927673 C150.23491679 156.35770002 160.65251856 158.90784315 171.125 161.25 C172.39802979 161.5380249 173.67105957 161.8260498 174.98266602 162.12280273 C187.22042073 164.7419071 196.60131884 164.00205103 208.75 161.125 C210.10553285 160.80933334 211.46108349 160.49374306 212.81665039 160.17822266 C217.21758651 159.14509963 221.60956268 158.0767587 226 157 C226.74280212 156.81848389 227.48560425 156.63696777 228.25091553 156.44995117 C288.85747098 141.59683248 358.43904488 122.2946902 406 80 C406.66257812 79.41992188 407.32515625 78.83984375 408.0078125 78.2421875 C414.14739643 72.52785613 420.03055233 64.27886455 421.3359375 55.82421875 C421.46030125 49.02152136 420.00612732 44.11844417 415.22265625 39.15625 C406.65662362 31.8823005 395.59502772 28.28811205 385 25 C384.89042969 23.99839844 384.78085937 22.99679688 384.66796875 21.96484375 C383.87941078 15.21207425 383.07272375 9.1454475 380 3 C380 2.01 380 1.02 380 0 C400.37292792 3.19754474 421.8705385 10.23552309 436 26 C444.45831278 37.89499274 446.94649897 49.25557767 444.53515625 63.8046875 C440.75419662 77.80989892 431.36009889 89.22265667 421 99 C422.2375 100.4540625 422.2375 100.4540625 423.5 101.9375 C424.04785156 102.58203125 424.59570312 103.2265625 425.16015625 103.890625 C426.39014444 105.30080254 427.64861627 106.68661601 428.93359375 108.046875 C439.51824438 119.35367528 445.56504888 131.39733499 445.41772461 146.96459961 C444.94295076 159.58703552 439.65389326 169.3341822 430.8203125 178.18359375 C405.61829851 199.94896947 364.58526528 204.35105319 332.79296875 202.25390625 C301.17175509 198.9660052 301.17175509 198.9660052 273.15715027 209.55302429 C268.79598228 213.87115894 265.3845569 218.84866652 262.11914062 224.02758789 C258.5709369 229.00447503 253.84981167 232.36358369 249 236 C247.90593322 236.91835211 246.82032999 237.84705838 245.75 238.79296875 C233.02527667 249.87287699 219.38017693 259.6410905 205.1875 268.75 C204.26267822 269.34659424 203.33785645 269.94318848 202.38500977 270.55786133 C193.19403435 276.36255444 193.19403435 276.36255444 189 277 C186.01953125 275.90234375 186.01953125 275.90234375 182.8125 273.9375 C182.22154541 273.57897949 181.63059082 273.22045898 181.02172852 272.85107422 C167.81348614 264.70026294 155.11929706 255.68891313 143 246 C142.09378906 245.27554688 141.18757812 244.55109375 140.25390625 243.8046875 C137.48217138 241.55994431 134.73666706 239.28736352 132 237 C131.4519873 236.54367187 130.90397461 236.08734375 130.33935547 235.6171875 C122.14362251 228.77330444 114.44081703 221.65859704 107 214 C105.33600641 212.33066454 103.66920538 210.66412408 102 209 C101.23743896 207.96786377 100.47487793 206.93572754 99.68920898 205.87231445 C96.60831163 202.82166873 94.15860738 202.5280878 89.88476562 202.35058594 C87.39157023 202.36506212 84.8984296 202.41175483 82.40625 202.484375 C81.0550862 202.50069847 79.70388298 202.51400625 78.35266113 202.5244751 C74.78967813 202.55865741 71.22822572 202.62695996 67.66595459 202.70458984 C61.35088295 202.836988 55.03476844 202.91351598 48.71875 202.984375 C48.03693916 202.99264565 47.35512833 203.00091629 46.65265656 203.00943756 C30.34661259 203.18907256 14.23181793 202.13621121 -1.75 198.75 C-2.78656738 198.53529053 -3.82313477 198.32058105 -4.89111328 198.09936523 C-25.2921496 193.70522321 -45.67836383 186.82583893 -58.53125 169.3046875 C-65.52914974 158.32394057 -66.95984994 145.39608056 -64.31640625 132.72265625 C-63.38153171 130.01889048 -62.3065781 127.54396047 -61 125 C-60.57589844 124.16339844 -60.15179688 123.32679688 -59.71484375 122.46484375 C-56.02906584 115.82223009 -51.16154538 110.52209451 -46 105 C-44.29988655 103.0244052 -42.64767424 101.01972971 -41 99 C-42.03447266 98.05253906 -42.03447266 98.05253906 -43.08984375 97.0859375 C-54.67561622 86.05640925 -64.7906212 72.92843305 -65.46606445 56.37573242 C-65.65569717 43.10007826 -61.95571395 32.60821995 -52.91796875 22.72265625 C-40.26447137 10.44687521 -17.75234162 0 0 0 Z M-30 121 C-36.44447856 128.07264073 -42.0189866 135.21675694 -42.5 145.0625 C-42.18599276 151.59587637 -39.83904227 156.53940628 -35.125 161.0625 C-10.04516789 180.53376206 27.74465758 180.21340797 57.875 180.0625 C59.6419258 180.05747018 61.408853 180.05290992 63.17578125 180.04882812 C67.45055626 180.0379509 71.72526208 180.02076977 76 180 C75.64663574 179.54141602 75.29327148 179.08283203 74.92919922 178.61035156 C72.0372205 174.81151009 69.27263904 170.96319973 66.6328125 166.984375 C66.05660156 166.12585938 65.48039062 165.26734375 64.88671875 164.3828125 C63.70740377 162.62037726 62.54078198 160.84938525 61.38671875 159.0703125 C57.52396447 153.37511577 54.41237827 150.41311195 48 148 C46.1477182 147.22176187 44.29621747 146.44166329 42.4453125 145.66015625 C41.43130371 145.2437085 40.41729492 144.82726074 39.37255859 144.39819336 C19.76078569 136.33203718 0.50011468 127.45206574 -17.21875 115.73046875 C-22.95273059 112.16283757 -25.82245783 116.89574805 -30 121 Z M396.34375 116.16796875 C395.20208374 116.87953125 395.20208374 116.87953125 394.03735352 117.60546875 C393.20002686 118.12753906 392.3627002 118.64960938 391.5 119.1875 C377.00388756 128.01960349 361.94619523 135.94519294 346.140625 142.171875 C345.48573593 142.43202393 344.83084686 142.69217285 344.15611267 142.96020508 C340.98492017 144.21533527 337.80994092 145.43350705 334.60571289 146.60351562 C326.67270482 149.66913384 322.51252429 152.82321167 318 160 C317.09758078 161.2491158 316.18791815 162.49304552 315.26953125 163.73046875 C314.44854048 164.88140243 313.62948645 166.03372042 312.8125 167.1875 C312.40064453 167.76435547 311.98878906 168.34121094 311.56445312 168.93554688 C308.97267206 172.57882707 306.47398086 176.27518484 304 180 C364.08741447 182.52988985 364.08741447 182.52988985 417 159 C421.12514829 154.29310003 422.36690406 149.60470027 422.27734375 143.46484375 C420.93863439 131.56729999 410.50447841 121.46436235 402 114 C399.45391466 114 398.48916771 114.80671479 396.34375 116.16796875 Z " fill="#A8F3A8" transform="translate(65,78)"/>
</svg>
